<mxfile host="app.diagrams.net" modified="2023-05-01T15:50:23.794Z" agent="Mozilla/5.0 (Windows NT 10.0; Win64; x64) AppleWebKit/537.36 (KHTML, like Gecko) Chrome/111.0.0.0 Safari/537.36 OPR/97.0.0.0" etag="RV9zjFzjjFH4GGvF9PhW" version="21.2.3" type="device">
  <diagram name="Page-1" id="b98fa263-6416-c6ec-5b7d-78bf54ef71d0">
    <mxGraphModel dx="1666" dy="766" grid="1" gridSize="10" guides="1" tooltips="1" connect="1" arrows="1" fold="1" page="1" pageScale="1.5" pageWidth="1169" pageHeight="826" background="none" math="0" shadow="0">
      <root>
        <mxCell id="0" style=";html=1;" />
        <mxCell id="1" style=";html=1;" parent="0" />
        <mxCell id="pUgV0wRVxy7Eslo5JRDV-10" style="edgeStyle=orthogonalEdgeStyle;rounded=0;orthogonalLoop=1;jettySize=auto;html=1;" edge="1" parent="1" source="303ed1de8c2c98b4-4" target="NwMDQdDu3rWjqkyYDzOP-1">
          <mxGeometry relative="1" as="geometry">
            <Array as="points">
              <mxPoint x="200" y="490" />
              <mxPoint x="200" y="490" />
            </Array>
          </mxGeometry>
        </mxCell>
        <mxCell id="303ed1de8c2c98b4-4" value="&lt;font style=&quot;font-size: 24px;&quot;&gt;Industria 4.0&lt;/font&gt;" style="whiteSpace=wrap;html=1;rounded=1;shadow=1;strokeWidth=1;fontSize=16;align=center;fillColor=#f5f5f5;strokeColor=#666666;fontStyle=1" parent="1" vertex="1">
          <mxGeometry x="120" y="442.5" width="220" height="100" as="geometry" />
        </mxCell>
        <mxCell id="pUgV0wRVxy7Eslo5JRDV-24" style="edgeStyle=orthogonalEdgeStyle;rounded=0;orthogonalLoop=1;jettySize=auto;html=1;entryX=0;entryY=0.5;entryDx=0;entryDy=0;" edge="1" parent="1" source="303ed1de8c2c98b4-8" target="NwMDQdDu3rWjqkyYDzOP-102">
          <mxGeometry relative="1" as="geometry" />
        </mxCell>
        <mxCell id="303ed1de8c2c98b4-8" value="IIoT (Internet de las cosas industrial)" style="whiteSpace=wrap;html=1;rounded=1;shadow=1;strokeWidth=1;fontSize=16;align=center;fillColor=#FFFF99;strokeColor=#666666;fontStyle=1" parent="1" vertex="1">
          <mxGeometry x="837.5" y="450" width="180" height="80" as="geometry" />
        </mxCell>
        <mxCell id="303ed1de8c2c98b4-18" value="Sistemas de gestión de flotas" style="whiteSpace=wrap;html=1;rounded=1;shadow=1;strokeWidth=1;fontSize=16;align=center;fillColor=#f5f5f5;strokeColor=#666666;" parent="1" vertex="1">
          <mxGeometry x="865" y="320" width="125" height="80" as="geometry" />
        </mxCell>
        <mxCell id="303ed1de8c2c98b4-104" style="edgeStyle=orthogonalEdgeStyle;html=1;startSize=6;endFill=0;endSize=6;strokeWidth=1;fontSize=16;rounded=0;endArrow=none;" parent="1" source="303ed1de8c2c98b4-8" target="303ed1de8c2c98b4-18" edge="1">
          <mxGeometry relative="1" as="geometry">
            <Array as="points" />
          </mxGeometry>
        </mxCell>
        <mxCell id="pUgV0wRVxy7Eslo5JRDV-20" style="edgeStyle=orthogonalEdgeStyle;rounded=0;orthogonalLoop=1;jettySize=auto;html=1;" edge="1" parent="1" source="NwMDQdDu3rWjqkyYDzOP-1" target="303ed1de8c2c98b4-8">
          <mxGeometry relative="1" as="geometry" />
        </mxCell>
        <mxCell id="NwMDQdDu3rWjqkyYDzOP-1" value="IoT&amp;nbsp;" style="whiteSpace=wrap;html=1;rounded=1;shadow=1;strokeWidth=1;fontSize=16;align=center;fillColor=#FFFFCC;strokeColor=#666666;fontStyle=1;direction=east;" parent="1" vertex="1">
          <mxGeometry x="390" y="440" width="130" height="100" as="geometry" />
        </mxCell>
        <mxCell id="NwMDQdDu3rWjqkyYDzOP-2" value="Domótica" style="whiteSpace=wrap;html=1;rounded=1;shadow=1;strokeWidth=1;fontSize=16;align=center;fillColor=#f5f5f5;strokeColor=#666666;direction=east;" parent="1" vertex="1">
          <mxGeometry x="530" y="320" width="125" height="80" as="geometry" />
        </mxCell>
        <mxCell id="NwMDQdDu3rWjqkyYDzOP-3" value="Ciudades inteligentes" style="whiteSpace=wrap;html=1;rounded=1;shadow=1;strokeWidth=1;fontSize=16;align=center;fillColor=#f5f5f5;strokeColor=#666666;direction=east;" parent="1" vertex="1">
          <mxGeometry x="690" y="320" width="125" height="80" as="geometry" />
        </mxCell>
        <mxCell id="NwMDQdDu3rWjqkyYDzOP-4" value="Sistemas de monitorización personales" style="whiteSpace=wrap;html=1;rounded=1;shadow=1;strokeWidth=1;fontSize=16;align=center;fillColor=#f5f5f5;strokeColor=#666666;direction=east;" parent="1" vertex="1">
          <mxGeometry x="530" y="590" width="125" height="80" as="geometry" />
        </mxCell>
        <mxCell id="NwMDQdDu3rWjqkyYDzOP-5" value="&lt;span&gt;IoT militar&lt;/span&gt;" style="whiteSpace=wrap;html=1;rounded=1;shadow=1;strokeWidth=1;fontSize=16;align=center;fillColor=#f5f5f5;strokeColor=#666666;direction=east;" parent="1" vertex="1">
          <mxGeometry x="680" y="590" width="125" height="80" as="geometry" />
        </mxCell>
        <mxCell id="NwMDQdDu3rWjqkyYDzOP-12" style="edgeStyle=orthogonalEdgeStyle;html=1;startSize=6;endFill=0;endSize=6;strokeWidth=1;fontSize=16;rounded=0;endArrow=none;" parent="1" source="NwMDQdDu3rWjqkyYDzOP-1" target="NwMDQdDu3rWjqkyYDzOP-2" edge="1">
          <mxGeometry relative="1" as="geometry">
            <Array as="points">
              <mxPoint x="593" y="490" />
            </Array>
          </mxGeometry>
        </mxCell>
        <mxCell id="NwMDQdDu3rWjqkyYDzOP-13" style="edgeStyle=orthogonalEdgeStyle;html=1;startSize=6;endFill=0;endSize=6;strokeWidth=1;fontSize=16;rounded=0;endArrow=none;" parent="1" source="NwMDQdDu3rWjqkyYDzOP-1" target="NwMDQdDu3rWjqkyYDzOP-4" edge="1">
          <mxGeometry relative="1" as="geometry">
            <Array as="points">
              <mxPoint x="593" y="490" />
            </Array>
          </mxGeometry>
        </mxCell>
        <mxCell id="NwMDQdDu3rWjqkyYDzOP-17" style="edgeStyle=orthogonalEdgeStyle;html=1;startSize=6;endFill=0;endSize=6;strokeWidth=1;fontSize=16;rounded=0;endArrow=none;" parent="1" source="NwMDQdDu3rWjqkyYDzOP-1" target="NwMDQdDu3rWjqkyYDzOP-3" edge="1">
          <mxGeometry relative="1" as="geometry">
            <Array as="points">
              <mxPoint x="750" y="490" />
            </Array>
          </mxGeometry>
        </mxCell>
        <mxCell id="NwMDQdDu3rWjqkyYDzOP-18" style="edgeStyle=orthogonalEdgeStyle;html=1;startSize=6;endFill=0;endSize=6;strokeWidth=1;fontSize=16;rounded=0;endArrow=none;" parent="1" source="NwMDQdDu3rWjqkyYDzOP-1" target="NwMDQdDu3rWjqkyYDzOP-5" edge="1">
          <mxGeometry relative="1" as="geometry">
            <Array as="points">
              <mxPoint x="750" y="490" />
            </Array>
          </mxGeometry>
        </mxCell>
        <mxCell id="NwMDQdDu3rWjqkyYDzOP-102" value="Sistemas SCADA (Supervisory Control and Data Acquisition)" style="whiteSpace=wrap;html=1;rounded=1;shadow=1;strokeWidth=1;fontSize=16;align=center;fillColor=#FFFF66;strokeColor=#666666;fontStyle=1" parent="1" vertex="1">
          <mxGeometry x="1090" y="442.5" width="190" height="95" as="geometry" />
        </mxCell>
        <mxCell id="NwMDQdDu3rWjqkyYDzOP-103" value="Supervisión y control remoto de procesos industriales" style="whiteSpace=wrap;html=1;rounded=1;shadow=1;strokeWidth=1;fontSize=16;align=center;fillColor=#f5f5f5;strokeColor=#666666;" parent="1" vertex="1">
          <mxGeometry x="1280" y="310" width="125" height="80" as="geometry" />
        </mxCell>
        <mxCell id="NwMDQdDu3rWjqkyYDzOP-104" value="Adquisición y registro de datos" style="whiteSpace=wrap;html=1;rounded=1;shadow=1;strokeWidth=1;fontSize=16;align=center;fillColor=#f5f5f5;strokeColor=#666666;" parent="1" vertex="1">
          <mxGeometry x="1463.5" y="310" width="125" height="80" as="geometry" />
        </mxCell>
        <mxCell id="NwMDQdDu3rWjqkyYDzOP-105" value="Interfaces gráficas de usuario (GUI)" style="whiteSpace=wrap;html=1;rounded=1;shadow=1;strokeWidth=1;fontSize=16;align=center;fillColor=#f5f5f5;strokeColor=#666666;" parent="1" vertex="1">
          <mxGeometry x="1280" y="590" width="125" height="80" as="geometry" />
        </mxCell>
        <mxCell id="NwMDQdDu3rWjqkyYDzOP-106" value="Optimización de procesos industriales" style="whiteSpace=wrap;html=1;rounded=1;shadow=1;strokeWidth=1;fontSize=16;align=center;fillColor=#FFFF00;strokeColor=#666666;fontStyle=1" parent="1" vertex="1">
          <mxGeometry x="1470" y="590" width="125" height="80" as="geometry" />
        </mxCell>
        <mxCell id="NwMDQdDu3rWjqkyYDzOP-107" style="edgeStyle=orthogonalEdgeStyle;html=1;startSize=6;endFill=0;endSize=6;strokeWidth=1;fontSize=16;rounded=0;endArrow=none;" parent="1" source="NwMDQdDu3rWjqkyYDzOP-102" target="NwMDQdDu3rWjqkyYDzOP-103" edge="1">
          <mxGeometry relative="1" as="geometry">
            <Array as="points">
              <mxPoint x="1350" y="490" />
            </Array>
          </mxGeometry>
        </mxCell>
        <mxCell id="NwMDQdDu3rWjqkyYDzOP-108" style="edgeStyle=orthogonalEdgeStyle;html=1;startSize=6;endFill=0;endSize=6;strokeWidth=1;fontSize=16;rounded=0;endArrow=none;" parent="1" source="NwMDQdDu3rWjqkyYDzOP-102" target="NwMDQdDu3rWjqkyYDzOP-105" edge="1">
          <mxGeometry relative="1" as="geometry">
            <Array as="points">
              <mxPoint x="1350" y="490" />
            </Array>
          </mxGeometry>
        </mxCell>
        <mxCell id="NwMDQdDu3rWjqkyYDzOP-109" style="edgeStyle=orthogonalEdgeStyle;html=1;startSize=6;endFill=0;endSize=6;strokeWidth=1;fontSize=16;rounded=0;endArrow=none;" parent="1" source="NwMDQdDu3rWjqkyYDzOP-102" target="NwMDQdDu3rWjqkyYDzOP-104" edge="1">
          <mxGeometry relative="1" as="geometry">
            <Array as="points">
              <mxPoint x="1530" y="490" />
            </Array>
          </mxGeometry>
        </mxCell>
        <mxCell id="NwMDQdDu3rWjqkyYDzOP-110" style="edgeStyle=orthogonalEdgeStyle;html=1;startSize=6;endFill=0;endSize=6;strokeWidth=1;fontSize=16;rounded=0;endArrow=none;" parent="1" source="NwMDQdDu3rWjqkyYDzOP-102" target="NwMDQdDu3rWjqkyYDzOP-106" edge="1">
          <mxGeometry relative="1" as="geometry">
            <Array as="points">
              <mxPoint x="1530" y="490" />
            </Array>
          </mxGeometry>
        </mxCell>
        <mxCell id="pUgV0wRVxy7Eslo5JRDV-23" value="" style="edgeStyle=orthogonalEdgeStyle;html=1;startSize=6;endFill=0;endSize=6;strokeWidth=1;fontSize=16;rounded=0;endArrow=none;" edge="1" parent="1" source="303ed1de8c2c98b4-8" target="303ed1de8c2c98b4-17">
          <mxGeometry relative="1" as="geometry">
            <Array as="points">
              <mxPoint x="920" y="600" />
            </Array>
            <mxPoint x="928" y="510" as="sourcePoint" />
            <mxPoint x="1120" y="560" as="targetPoint" />
          </mxGeometry>
        </mxCell>
        <mxCell id="303ed1de8c2c98b4-17" value="Sistemas de seguimiento de inventario" style="whiteSpace=wrap;html=1;rounded=1;shadow=1;strokeWidth=1;fontSize=16;align=center;fillColor=#f5f5f5;strokeColor=#666666;" parent="1" vertex="1">
          <mxGeometry x="865" y="590" width="125" height="80" as="geometry" />
        </mxCell>
      </root>
    </mxGraphModel>
  </diagram>
</mxfile>
